<svg width="32" height="32" viewBox="0 0 32 32" fill="none" xmlns="http://www.w3.org/2000/svg">
  <mask id="mask0_5105_809" style="mask-type:luminance" maskUnits="userSpaceOnUse" x="0" y="0"
    width="32" height="32">
    <path d="M31.7582 0H0.241699V32H31.7582V0Z" fill="white" />
  </mask>
  <g mask="url(#mask0_5105_809)">
    <path
      d="M17.6078 5.48024L18.8234 4.26464C21.2105 1.87751 25.0968 1.81843 27.4977 4.1918C28.4074 5.09311 29.012 6.25676 29.2264 7.51928C29.4409 8.78182 29.2544 10.0798 28.6933 11.2309C28.4241 11.7808 28.3335 12.401 28.4338 13.005C28.5343 13.6089 28.8208 14.1664 29.2535 14.5995C30.0491 13.8021 30.6796 12.8557 31.1093 11.8145C31.539 10.7733 31.7594 9.65763 31.7578 8.53123C31.7561 7.40485 31.5328 6.2898 31.1001 5.24981C30.6674 4.2098 30.0341 3.26524 29.2363 2.47007C25.8791 -0.868178 20.4298 -0.801748 17.082 2.54588L5.49525 14.1323L4.54272 13.1798C2.11511 10.7522 2.09964 6.784 4.57007 4.39953C5.48452 3.51963 6.64954 2.94523 7.90434 2.75563C9.15914 2.56603 10.4418 2.77057 11.5754 3.34102C12.0929 3.60616 12.6808 3.70101 13.2554 3.61202C13.8299 3.52304 14.3616 3.25477 14.7746 2.84552L14.8041 2.81614C14.8133 2.80701 14.8206 2.79614 14.8256 2.78417C14.8306 2.77221 14.8331 2.75938 14.8331 2.74642C14.8331 2.73347 14.8306 2.72063 14.8256 2.70868C14.8206 2.69672 14.8133 2.68585 14.8041 2.67671C13.2094 1.12202 11.0723 0.248756 8.84515 0.241695C6.61799 0.234637 4.47543 1.09434 2.87086 2.63888C-0.58557 5.97557 -0.573219 11.5242 2.82396 14.9214L14.4073 26.5047L13.1768 27.7351C10.7897 30.1222 6.90327 30.1813 4.50255 27.8079C3.59282 26.9067 2.98827 25.743 2.7738 24.4805C2.55935 23.218 2.74573 21.92 3.3068 20.7688C3.57597 20.2189 3.66669 19.5987 3.5663 18.9949C3.46589 18.3909 3.17936 17.8334 2.74675 17.4002C1.95119 18.1977 1.32055 19.144 0.890839 20.1852C0.46113 21.2265 0.240783 22.342 0.242379 23.4685C0.243976 24.5949 0.467486 25.71 0.900146 26.7499C1.3328 27.79 1.96613 28.7345 2.76394 29.5297C6.12095 32.8681 11.5704 32.8018 14.9182 29.454L26.52 17.8521L27.4761 18.8082C29.8632 21.1954 29.9223 25.0816 27.549 27.4824C26.6477 28.3922 25.484 28.9967 24.2215 29.2113C22.959 29.4257 21.661 29.2392 20.5098 28.6781C19.9598 28.4088 19.3392 28.318 18.7351 28.4186C18.131 28.5191 17.5733 28.806 17.1401 29.2389C17.9376 30.0345 18.8839 30.6652 19.9251 31.0949C20.9664 31.5246 22.082 31.745 23.2085 31.7434C24.3348 31.7417 25.4499 31.5182 26.4898 31.0856C27.5299 30.6529 28.4744 30.0195 29.2696 29.2217C32.608 25.8647 32.5416 20.4152 29.1939 17.0676L17.6078 5.48024ZM16.137 24.7742L7.22542 15.8626L15.8775 7.21071L24.789 16.1223L16.137 24.7742Z"
      fill="black" />
  </g>
</svg>
  