<svg width="161" height="56" viewBox="0 0 161 56" fill="none" xmlns="http://www.w3.org/2000/svg">
  <rect x="0.5" y="0.5" width="160" height="55" rx="7.5" fill="#09090B" />
  <rect x="0.5" y="0.5" width="160" height="55" rx="7.5" stroke="#A1A1AA" />
  <path
    d="M36.9829 42.7161C35.2409 44.4048 33.3389 44.1382 31.5081 43.3383C29.5705 42.5206 27.793 42.485 25.7488 43.3383C23.1891 44.4403 21.8382 44.1204 20.3095 42.7161C11.635 33.775 12.9148 20.159 22.7625 19.6613C25.1622 19.7857 26.8331 20.9766 28.2374 21.0833C30.3349 20.6567 32.3435 19.4302 34.5832 19.5902C37.2673 19.8035 39.2937 20.87 40.6269 22.7897C35.0809 26.1138 36.3963 33.4195 41.4801 35.4637C40.4669 38.13 39.1515 40.7786 36.9651 42.7339L36.9829 42.7161ZM28.0596 19.5546C27.793 15.5907 31.0103 12.32 34.7077 12C35.2231 16.5861 30.5482 19.999 28.0596 19.5546Z"
    fill="#F4F4F5" />
  <path
    d="M55.7841 21H52.9588V12.2727H55.8736C56.7287 12.2727 57.4631 12.4474 58.0767 12.7969C58.6903 13.1435 59.1605 13.642 59.4872 14.2926C59.8168 14.9403 59.9815 15.7173 59.9815 16.6236C59.9815 17.5327 59.8153 18.3139 59.483 18.9673C59.1534 19.6207 58.6761 20.1236 58.0511 20.4759C57.4261 20.8253 56.6705 21 55.7841 21ZM54.2756 19.8494H55.7116C56.3764 19.8494 56.929 19.7244 57.3693 19.4744C57.8097 19.2216 58.1392 18.8565 58.358 18.3793C58.5767 17.8991 58.6861 17.3139 58.6861 16.6236C58.6861 15.9389 58.5767 15.358 58.358 14.8807C58.142 14.4034 57.8196 14.0412 57.3906 13.794C56.9616 13.5469 56.429 13.4233 55.7926 13.4233H54.2756V19.8494ZM64.2738 21.1321C63.6602 21.1321 63.1246 20.9915 62.6673 20.7102C62.2099 20.429 61.8548 20.0355 61.6019 19.5298C61.3491 19.0241 61.2227 18.4332 61.2227 17.7571C61.2227 17.0781 61.3491 16.4844 61.6019 15.9759C61.8548 15.4673 62.2099 15.0724 62.6673 14.7912C63.1246 14.5099 63.6602 14.3693 64.2738 14.3693C64.8874 14.3693 65.4229 14.5099 65.8803 14.7912C66.3377 15.0724 66.6928 15.4673 66.9457 15.9759C67.1985 16.4844 67.3249 17.0781 67.3249 17.7571C67.3249 18.4332 67.1985 19.0241 66.9457 19.5298C66.6928 20.0355 66.3377 20.429 65.8803 20.7102C65.4229 20.9915 64.8874 21.1321 64.2738 21.1321ZM64.2781 20.0625C64.6758 20.0625 65.0053 19.9574 65.2667 19.7472C65.5281 19.5369 65.7212 19.2571 65.8462 18.9077C65.9741 18.5582 66.038 18.1733 66.038 17.7528C66.038 17.3352 65.9741 16.9517 65.8462 16.6023C65.7212 16.25 65.5281 15.9673 65.2667 15.7543C65.0053 15.5412 64.6758 15.4347 64.2781 15.4347C63.8775 15.4347 63.5451 15.5412 63.2809 15.7543C63.0195 15.9673 62.8249 16.25 62.6971 16.6023C62.5721 16.9517 62.5096 17.3352 62.5096 17.7528C62.5096 18.1733 62.5721 18.5582 62.6971 18.9077C62.8249 19.2571 63.0195 19.5369 63.2809 19.7472C63.5451 19.9574 63.8775 20.0625 64.2781 20.0625ZM69.967 21L68.0408 14.4545H69.3576L70.6403 19.2614H70.7042L71.9911 14.4545H73.3079L74.5863 19.2401H74.6502L75.9244 14.4545H77.2411L75.3192 21H74.0195L72.69 16.2741H72.592L71.2624 21H69.967ZM79.7244 17.1136V21H78.4503V14.4545H79.6733V15.5199H79.7543C79.9048 15.1733 80.1406 14.8949 80.4616 14.6847C80.7855 14.4744 81.1932 14.3693 81.6847 14.3693C82.1307 14.3693 82.5213 14.4631 82.8565 14.6506C83.1918 14.8352 83.4517 15.1108 83.6364 15.4773C83.821 15.8437 83.9134 16.2969 83.9134 16.8366V21H82.6392V16.9901C82.6392 16.5156 82.5156 16.1449 82.2685 15.8778C82.0213 15.608 81.6818 15.473 81.25 15.473C80.9545 15.473 80.6918 15.5369 80.4616 15.6648C80.2344 15.7926 80.054 15.9801 79.9205 16.2273C79.7898 16.4716 79.7244 16.767 79.7244 17.1136ZM86.8963 12.2727V21H85.6222V12.2727H86.8963ZM91.3675 21.1321C90.7539 21.1321 90.2184 20.9915 89.761 20.7102C89.3036 20.429 88.9485 20.0355 88.6957 19.5298C88.4428 19.0241 88.3164 18.4332 88.3164 17.7571C88.3164 17.0781 88.4428 16.4844 88.6957 15.9759C88.9485 15.4673 89.3036 15.0724 89.761 14.7912C90.2184 14.5099 90.7539 14.3693 91.3675 14.3693C91.9812 14.3693 92.5167 14.5099 92.9741 14.7912C93.4315 15.0724 93.7866 15.4673 94.0394 15.9759C94.2923 16.4844 94.4187 17.0781 94.4187 17.7571C94.4187 18.4332 94.2923 19.0241 94.0394 19.5298C93.7866 20.0355 93.4315 20.429 92.9741 20.7102C92.5167 20.9915 91.9812 21.1321 91.3675 21.1321ZM91.3718 20.0625C91.7695 20.0625 92.0991 19.9574 92.3604 19.7472C92.6218 19.5369 92.815 19.2571 92.94 18.9077C93.0678 18.5582 93.1317 18.1733 93.1317 17.7528C93.1317 17.3352 93.0678 16.9517 92.94 16.6023C92.815 16.25 92.6218 15.9673 92.3604 15.7543C92.0991 15.5412 91.7695 15.4347 91.3718 15.4347C90.9712 15.4347 90.6388 15.5412 90.3746 15.7543C90.1133 15.9673 89.9187 16.25 89.7908 16.6023C89.6658 16.9517 89.6033 17.3352 89.6033 17.7528C89.6033 18.1733 89.6658 18.5582 89.7908 18.9077C89.9187 19.2571 90.1133 19.5369 90.3746 19.7472C90.6388 19.9574 90.9712 20.0625 91.3718 20.0625ZM97.7457 21.1449C97.331 21.1449 96.956 21.0682 96.6207 20.9148C96.2855 20.7585 96.0199 20.5327 95.8239 20.2372C95.6307 19.9418 95.5341 19.5795 95.5341 19.1506C95.5341 18.7812 95.6051 18.4773 95.7472 18.2386C95.8892 18 96.081 17.8111 96.3224 17.6719C96.5639 17.5327 96.8338 17.4276 97.1321 17.3565C97.4304 17.2855 97.7344 17.2315 98.044 17.1946C98.4361 17.1491 98.7543 17.1122 98.9986 17.0838C99.2429 17.0526 99.4205 17.0028 99.5312 16.9347C99.642 16.8665 99.6974 16.7557 99.6974 16.6023V16.5724C99.6974 16.2003 99.5923 15.9119 99.3821 15.7074C99.1747 15.5028 98.8651 15.4006 98.4531 15.4006C98.0241 15.4006 97.6861 15.4957 97.4389 15.6861C97.1946 15.8736 97.0256 16.0824 96.9318 16.3125L95.7344 16.0398C95.8764 15.642 96.0838 15.321 96.3565 15.0767C96.6321 14.8295 96.9489 14.6506 97.3068 14.5398C97.6648 14.4261 98.0412 14.3693 98.4361 14.3693C98.6974 14.3693 98.9744 14.4006 99.267 14.4631C99.5625 14.5227 99.8381 14.6335 100.094 14.7955C100.352 14.9574 100.564 15.1889 100.729 15.4901C100.893 15.7884 100.976 16.1761 100.976 16.6534V21H99.7315V20.1051H99.6804C99.598 20.2699 99.4744 20.4318 99.3097 20.5909C99.1449 20.75 98.9332 20.8821 98.6747 20.9872C98.4162 21.0923 98.1065 21.1449 97.7457 21.1449ZM98.0227 20.1222C98.375 20.1222 98.6761 20.0526 98.9261 19.9134C99.179 19.7741 99.3707 19.5923 99.5014 19.3679C99.6349 19.1406 99.7017 18.8977 99.7017 18.6392V17.7955C99.6563 17.8409 99.5682 17.8835 99.4375 17.9233C99.3097 17.9602 99.1634 17.9929 98.9986 18.0213C98.8338 18.0469 98.6733 18.071 98.517 18.0938C98.3608 18.1136 98.2301 18.1307 98.125 18.1449C97.8778 18.1761 97.652 18.2287 97.4474 18.3026C97.2457 18.3764 97.0838 18.483 96.9616 18.6222C96.8423 18.7585 96.7827 18.9403 96.7827 19.1676C96.7827 19.483 96.8991 19.7216 97.1321 19.8835C97.3651 20.0426 97.6619 20.1222 98.0227 20.1222ZM105.123 21.1278C104.595 21.1278 104.123 20.9929 103.708 20.723C103.297 20.4503 102.973 20.0625 102.737 19.5597C102.504 19.054 102.387 18.4474 102.387 17.7401C102.387 17.0327 102.505 16.4276 102.741 15.9247C102.98 15.4219 103.306 15.0369 103.721 14.7699C104.136 14.5028 104.606 14.3693 105.132 14.3693C105.538 14.3693 105.865 14.4375 106.112 14.5739C106.362 14.7074 106.555 14.8636 106.691 15.0426C106.831 15.2216 106.939 15.3793 107.015 15.5156H107.092V12.2727H108.366V21H107.122V19.9815H107.015C106.939 20.1207 106.828 20.2798 106.683 20.4588C106.541 20.6378 106.345 20.794 106.095 20.9276C105.845 21.0611 105.521 21.1278 105.123 21.1278ZM105.404 20.0412C105.771 20.0412 106.081 19.9446 106.333 19.7514C106.589 19.5554 106.782 19.2841 106.913 18.9375C107.047 18.5909 107.113 18.1875 107.113 17.7273C107.113 17.2727 107.048 16.875 106.917 16.5341C106.787 16.1932 106.595 15.9276 106.342 15.7372C106.089 15.5469 105.777 15.4517 105.404 15.4517C105.021 15.4517 104.701 15.5511 104.446 15.75C104.19 15.9489 103.997 16.2202 103.866 16.5639C103.738 16.9077 103.674 17.2955 103.674 17.7273C103.674 18.1648 103.74 18.5582 103.87 18.9077C104.001 19.2571 104.194 19.5341 104.45 19.7386C104.708 19.9403 105.027 20.0412 105.404 20.0412ZM116.118 21.1321C115.504 21.1321 114.968 20.9915 114.511 20.7102C114.054 20.429 113.699 20.0355 113.446 19.5298C113.193 19.0241 113.066 18.4332 113.066 17.7571C113.066 17.0781 113.193 16.4844 113.446 15.9759C113.699 15.4673 114.054 15.0724 114.511 14.7912C114.968 14.5099 115.504 14.3693 116.118 14.3693C116.731 14.3693 117.267 14.5099 117.724 14.7912C118.181 15.0724 118.537 15.4673 118.789 15.9759C119.042 16.4844 119.169 17.0781 119.169 17.7571C119.169 18.4332 119.042 19.0241 118.789 19.5298C118.537 20.0355 118.181 20.429 117.724 20.7102C117.267 20.9915 116.731 21.1321 116.118 21.1321ZM116.122 20.0625C116.52 20.0625 116.849 19.9574 117.11 19.7472C117.372 19.5369 117.565 19.2571 117.69 18.9077C117.818 18.5582 117.882 18.1733 117.882 17.7528C117.882 17.3352 117.818 16.9517 117.69 16.6023C117.565 16.25 117.372 15.9673 117.11 15.7543C116.849 15.5412 116.52 15.4347 116.122 15.4347C115.721 15.4347 115.389 15.5412 115.125 15.7543C114.863 15.9673 114.669 16.25 114.541 16.6023C114.416 16.9517 114.353 17.3352 114.353 17.7528C114.353 18.1733 114.416 18.5582 114.541 18.9077C114.669 19.2571 114.863 19.5369 115.125 19.7472C115.389 19.9574 115.721 20.0625 116.122 20.0625ZM121.865 17.1136V21H120.591V14.4545H121.814V15.5199H121.895C122.045 15.1733 122.281 14.8949 122.602 14.6847C122.926 14.4744 123.334 14.3693 123.825 14.3693C124.271 14.3693 124.662 14.4631 124.997 14.6506C125.332 14.8352 125.592 15.1108 125.777 15.4773C125.962 15.8437 126.054 16.2969 126.054 16.8366V21H124.78V16.9901C124.78 16.5156 124.656 16.1449 124.409 15.8778C124.162 15.608 123.822 15.473 123.391 15.473C123.095 15.473 122.832 15.5369 122.602 15.6648C122.375 15.7926 122.195 15.9801 122.061 16.2273C121.93 16.4716 121.865 16.767 121.865 17.1136ZM133.994 14.4545V15.4773H130.419V14.4545H133.994ZM131.377 12.8864H132.652V19.0781C132.652 19.3253 132.689 19.5114 132.762 19.6364C132.836 19.7585 132.931 19.8423 133.048 19.8878C133.167 19.9304 133.297 19.9517 133.436 19.9517C133.538 19.9517 133.627 19.9446 133.704 19.9304C133.781 19.9162 133.841 19.9048 133.883 19.8963L134.113 20.9489C134.039 20.9773 133.934 21.0057 133.798 21.0341C133.662 21.0653 133.491 21.0824 133.287 21.0852C132.951 21.0909 132.639 21.0312 132.349 20.9062C132.059 20.7812 131.825 20.5881 131.646 20.3267C131.467 20.0653 131.377 19.7372 131.377 19.3423V12.8864ZM136.818 17.1136V21H135.544V12.2727H136.801V15.5199H136.882C137.036 15.1676 137.27 14.8878 137.585 14.6804C137.901 14.473 138.313 14.3693 138.821 14.3693C139.27 14.3693 139.662 14.4616 139.997 14.6463C140.335 14.831 140.597 15.1065 140.781 15.473C140.969 15.8366 141.062 16.2912 141.062 16.8366V21H139.788V16.9901C139.788 16.5099 139.665 16.1378 139.418 15.8736C139.17 15.6065 138.827 15.473 138.386 15.473C138.085 15.473 137.815 15.5369 137.577 15.6648C137.341 15.7926 137.155 15.9801 137.018 16.2273C136.885 16.4716 136.818 16.767 136.818 17.1136ZM145.584 21.1321C144.939 21.1321 144.384 20.9943 143.918 20.7188C143.455 20.4403 143.097 20.0497 142.844 19.5469C142.594 19.0412 142.469 18.4489 142.469 17.7699C142.469 17.0994 142.594 16.5085 142.844 15.9972C143.097 15.4858 143.449 15.0866 143.901 14.7997C144.355 14.5128 144.886 14.3693 145.494 14.3693C145.864 14.3693 146.222 14.4304 146.568 14.5526C146.915 14.6747 147.226 14.8665 147.501 15.1278C147.777 15.3892 147.994 15.7287 148.153 16.1463C148.313 16.5611 148.392 17.0653 148.392 17.6591V18.1108H143.189V17.1562H147.143C147.143 16.821 147.075 16.5241 146.939 16.2656C146.803 16.0043 146.611 15.7983 146.364 15.6477C146.119 15.4972 145.832 15.4219 145.503 15.4219C145.145 15.4219 144.832 15.5099 144.565 15.6861C144.301 15.8594 144.097 16.0866 143.952 16.3679C143.81 16.6463 143.739 16.9489 143.739 17.2756V18.0213C143.739 18.4588 143.815 18.831 143.969 19.1378C144.125 19.4446 144.342 19.679 144.621 19.8409C144.899 20 145.224 20.0795 145.597 20.0795C145.838 20.0795 146.058 20.0455 146.257 19.9773C146.456 19.9062 146.628 19.8011 146.773 19.6619C146.918 19.5227 147.028 19.3509 147.105 19.1463L148.311 19.3636C148.214 19.7187 148.041 20.0298 147.791 20.2969C147.544 20.5611 147.233 20.767 146.858 20.9148C146.486 21.0597 146.061 21.1321 145.584 21.1321Z"
    fill="#A1A1AA" />
  <path
    d="M54.8267 42H52.4972L57.7315 27.4545H60.267L65.5014 42H63.1719L59.0597 30.0966H58.946L54.8267 42ZM55.2173 36.304H62.7741V38.1506H55.2173V36.304ZM67.4315 46.0909V31.0909H69.5053V32.8594H69.6829C69.806 32.6321 69.9835 32.3693 70.2156 32.071C70.4476 31.7727 70.7695 31.5123 71.1815 31.2898C71.5934 31.0625 72.1379 30.9489 72.815 30.9489C73.6957 30.9489 74.4817 31.1714 75.1729 31.6165C75.8642 32.0616 76.4064 32.7031 76.7994 33.5412C77.1971 34.3793 77.396 35.3878 77.396 36.5668C77.396 37.7457 77.1995 38.7566 76.8065 39.5994C76.4135 40.4375 75.8737 41.0838 75.1871 41.5384C74.5006 41.9882 73.717 42.2131 72.8363 42.2131C72.1734 42.2131 71.6313 42.1018 71.2099 41.8793C70.7932 41.6567 70.4665 41.3963 70.2298 41.098C69.993 40.7997 69.8107 40.5346 69.6829 40.3026H69.555V46.0909H67.4315ZM69.5124 36.5455C69.5124 37.3125 69.6237 37.9848 69.8462 38.5625C70.0688 39.1402 70.3907 39.5923 70.8121 39.919C71.2335 40.241 71.7496 40.402 72.3604 40.402C72.9949 40.402 73.5252 40.2339 73.9513 39.8977C74.3775 39.5568 74.6995 39.0952 74.9173 38.5128C75.1398 37.9304 75.2511 37.2746 75.2511 36.5455C75.2511 35.8258 75.1422 35.1795 74.9244 34.6065C74.7113 34.0336 74.3893 33.5814 73.9585 33.25C73.5323 32.9186 72.9996 32.7528 72.3604 32.7528C71.7449 32.7528 71.2241 32.9115 70.7979 33.2287C70.3765 33.5459 70.0569 33.9886 69.8391 34.5568C69.6213 35.125 69.5124 35.7879 69.5124 36.5455ZM79.7752 46.0909V31.0909H81.8491V32.8594H82.0266C82.1497 32.6321 82.3273 32.3693 82.5593 32.071C82.7913 31.7727 83.1133 31.5123 83.5252 31.2898C83.9371 31.0625 84.4817 30.9489 85.1587 30.9489C86.0394 30.9489 86.8254 31.1714 87.5167 31.6165C88.208 32.0616 88.7501 32.7031 89.1431 33.5412C89.5408 34.3793 89.7397 35.3878 89.7397 36.5668C89.7397 37.7457 89.5432 38.7566 89.1502 39.5994C88.7572 40.4375 88.2174 41.0838 87.5309 41.5384C86.8443 41.9882 86.0607 42.2131 85.18 42.2131C84.5172 42.2131 83.975 42.1018 83.5536 41.8793C83.137 41.6567 82.8103 41.3963 82.5735 41.098C82.3368 40.7997 82.1545 40.5346 82.0266 40.3026H81.8988V46.0909H79.7752ZM81.8562 36.5455C81.8562 37.3125 81.9674 37.9848 82.19 38.5625C82.4125 39.1402 82.7345 39.5923 83.1559 39.919C83.5773 40.241 84.0934 40.402 84.7042 40.402C85.3387 40.402 85.869 40.2339 86.2951 39.8977C86.7212 39.5568 87.0432 39.0952 87.261 38.5128C87.4835 37.9304 87.5948 37.2746 87.5948 36.5455C87.5948 35.8258 87.4859 35.1795 87.2681 34.6065C87.055 34.0336 86.7331 33.5814 86.3022 33.25C85.8761 32.9186 85.3434 32.7528 84.7042 32.7528C84.0887 32.7528 83.5678 32.9115 83.1417 33.2287C82.7203 33.5459 82.4007 33.9886 82.1829 34.5568C81.9651 35.125 81.8562 35.7879 81.8562 36.5455ZM105.516 31.2756C105.44 30.6032 105.127 30.0824 104.578 29.7131C104.029 29.339 103.338 29.152 102.504 29.152C101.908 29.152 101.392 29.2467 100.956 29.4361C100.52 29.6207 100.182 29.8764 99.9403 30.2031C99.7036 30.5251 99.5852 30.892 99.5852 31.304C99.5852 31.6496 99.6657 31.9479 99.8267 32.1989C99.9924 32.4498 100.208 32.6605 100.473 32.831C100.743 32.9967 101.032 33.1364 101.339 33.25C101.647 33.3589 101.943 33.4489 102.227 33.5199L103.648 33.8892C104.112 34.0028 104.588 34.1567 105.075 34.3509C105.563 34.545 106.015 34.8007 106.432 35.1179C106.848 35.4351 107.185 35.8281 107.44 36.2969C107.701 36.7656 107.831 37.3267 107.831 37.9801C107.831 38.804 107.618 39.5355 107.192 40.1747C106.77 40.8139 106.157 41.3182 105.352 41.6875C104.552 42.0568 103.584 42.2415 102.447 42.2415C101.358 42.2415 100.416 42.0687 99.6207 41.723C98.8253 41.3774 98.2027 40.8873 97.7528 40.2528C97.303 39.6136 97.0545 38.8561 97.0071 37.9801H99.2088C99.2514 38.5057 99.4219 38.9437 99.7202 39.294C100.023 39.6397 100.409 39.8977 100.878 40.0682C101.351 40.2339 101.87 40.3168 102.433 40.3168C103.054 40.3168 103.605 40.2197 104.088 40.0256C104.576 39.8267 104.959 39.5521 105.239 39.2017C105.518 38.8466 105.658 38.4323 105.658 37.9588C105.658 37.5279 105.535 37.1752 105.288 36.9006C105.047 36.6259 104.718 36.3987 104.301 36.2188C103.889 36.0388 103.423 35.8802 102.902 35.7429L101.183 35.2741C100.018 34.9569 99.0952 34.4905 98.4134 33.875C97.7363 33.2595 97.3977 32.4451 97.3977 31.4318C97.3977 30.5937 97.625 29.8622 98.0795 29.2372C98.5341 28.6122 99.1496 28.1269 99.9261 27.7812C100.703 27.4309 101.579 27.2557 102.554 27.2557C103.539 27.2557 104.408 27.4285 105.161 27.7741C105.918 28.1198 106.515 28.5956 106.95 29.2017C107.386 29.803 107.613 30.4943 107.632 31.2756H105.516ZM115.375 31.0909V32.7955H109.417V31.0909H115.375ZM111.015 28.4773H113.138V38.7969C113.138 39.2088 113.2 39.5189 113.323 39.7273C113.446 39.9309 113.605 40.0705 113.799 40.1463C113.998 40.2173 114.213 40.2528 114.445 40.2528C114.615 40.2528 114.765 40.241 114.892 40.2173C115.02 40.1937 115.12 40.1747 115.191 40.1605L115.574 41.9148C115.451 41.9621 115.276 42.0095 115.049 42.0568C114.821 42.1089 114.537 42.1373 114.196 42.142C113.638 42.1515 113.117 42.0521 112.634 41.8438C112.151 41.6354 111.76 41.3134 111.462 40.8778C111.164 40.4422 111.015 39.8954 111.015 39.2372V28.4773ZM122.202 42.2202C121.18 42.2202 120.287 41.9858 119.525 41.517C118.763 41.0483 118.171 40.3925 117.749 39.5497C117.328 38.7069 117.117 37.7221 117.117 36.5952C117.117 35.4635 117.328 34.474 117.749 33.6264C118.171 32.7789 118.763 32.1207 119.525 31.652C120.287 31.1832 121.18 30.9489 122.202 30.9489C123.225 30.9489 124.118 31.1832 124.88 31.652C125.642 32.1207 126.234 32.7789 126.656 33.6264C127.077 34.474 127.288 35.4635 127.288 36.5952C127.288 37.7221 127.077 38.7069 126.656 39.5497C126.234 40.3925 125.642 41.0483 124.88 41.517C124.118 41.9858 123.225 42.2202 122.202 42.2202ZM122.21 40.4375C122.872 40.4375 123.422 40.2623 123.857 39.9119C124.293 39.5616 124.615 39.0952 124.823 38.5128C125.036 37.9304 125.143 37.2888 125.143 36.5881C125.143 35.892 125.036 35.2528 124.823 34.6705C124.615 34.0833 124.293 33.6122 123.857 33.2571C123.422 32.902 122.872 32.7244 122.21 32.7244C121.542 32.7244 120.988 32.902 120.548 33.2571C120.112 33.6122 119.788 34.0833 119.575 34.6705C119.366 35.2528 119.262 35.892 119.262 36.5881C119.262 37.2888 119.366 37.9304 119.575 38.5128C119.788 39.0952 120.112 39.5616 120.548 39.9119C120.988 40.2623 121.542 40.4375 122.21 40.4375ZM129.658 42V31.0909H131.711V32.8239H131.824C132.023 32.2367 132.373 31.7751 132.875 31.4389C133.382 31.098 133.955 30.9276 134.594 30.9276C134.727 30.9276 134.883 30.9323 135.063 30.9418C135.248 30.9512 135.392 30.9631 135.496 30.9773V33.0085C135.411 32.9848 135.259 32.9588 135.042 32.9304C134.824 32.8973 134.606 32.8807 134.388 32.8807C133.886 32.8807 133.439 32.9872 133.046 33.2003C132.658 33.4086 132.35 33.6998 132.123 34.0739C131.895 34.4432 131.782 34.8646 131.782 35.3381V42H129.658ZM141.645 42.2202C140.57 42.2202 139.644 41.9905 138.868 41.5312C138.096 41.0672 137.5 40.4162 137.078 39.5781C136.661 38.7353 136.453 37.7481 136.453 36.6165C136.453 35.4991 136.661 34.5142 137.078 33.6619C137.5 32.8097 138.087 32.1444 138.839 31.6662C139.597 31.188 140.482 30.9489 141.496 30.9489C142.111 30.9489 142.708 31.0507 143.286 31.2543C143.863 31.4579 144.382 31.7775 144.841 32.2131C145.3 32.6487 145.662 33.2145 145.928 33.9105C146.193 34.6018 146.325 35.4422 146.325 36.4318V37.1847H137.653V35.5938H144.244C144.244 35.035 144.131 34.5402 143.903 34.1094C143.676 33.6738 143.357 33.3305 142.945 33.0795C142.537 32.8286 142.059 32.7031 141.51 32.7031C140.913 32.7031 140.393 32.8499 139.947 33.1435C139.507 33.4323 139.166 33.8111 138.925 34.2798C138.688 34.7438 138.57 35.2481 138.57 35.7926V37.0355C138.57 37.7647 138.697 38.3849 138.953 38.8963C139.214 39.4077 139.576 39.7983 140.04 40.0682C140.504 40.3333 141.046 40.4659 141.666 40.4659C142.069 40.4659 142.436 40.4091 142.767 40.2955C143.098 40.1771 143.385 40.0019 143.626 39.7699C143.868 39.5379 144.053 39.2514 144.18 38.9105L146.19 39.2727C146.029 39.8646 145.741 40.383 145.324 40.8281C144.912 41.2685 144.393 41.6117 143.768 41.858C143.148 42.0994 142.44 42.2202 141.645 42.2202Z"
    fill="#F4F4F5" />
</svg>