<svg width="178" height="56" viewBox="0 0 178 56" fill="none" xmlns="http://www.w3.org/2000/svg">
  <rect x="0.5" y="0.5" width="177" height="55" rx="7.5" fill="#09090B" />
  <rect x="0.5" y="0.5" width="177" height="55" rx="7.5" stroke="#A1A1AA" />
  <g clip-path="url(#clip0_4105_648)">
    <path
      d="M14.817 12L30.8123 28L14.8186 44C14.5342 43.8804 14.2915 43.6794 14.121 43.4223C13.9505 43.1652 13.8598 42.8634 13.8604 42.5549V13.4467C13.8602 13.1383 13.9508 12.8366 14.121 12.5794C14.2911 12.3221 14.5332 12.1206 14.817 12ZM31.9229 29.1105L35.5388 32.7265L18.3591 42.6743L31.9229 29.1105ZM36.9478 24.0872L41.357 26.6413C41.595 26.7794 41.7926 26.9775 41.9299 27.216C42.0673 27.4545 42.1396 27.7248 42.1396 28C42.1396 28.2752 42.0673 28.5455 41.9299 28.784C41.7926 29.0225 41.595 29.2206 41.357 29.3587L36.9462 31.9128L33.0334 28L36.9478 24.0872ZM18.3591 13.3257L35.5404 23.2719L31.9229 26.8895L18.3591 13.3257Z"
      fill="#F4F4F5" />
  </g>
  <path
    d="M58.8651 15.0298C58.7827 14.7713 58.6719 14.5398 58.5327 14.3352C58.3963 14.1278 58.233 13.9517 58.0426 13.8068C57.8523 13.6591 57.6349 13.5469 57.3906 13.4702C57.1491 13.3935 56.8835 13.3551 56.5938 13.3551C56.1023 13.3551 55.6591 13.4815 55.2642 13.7344C54.8693 13.9872 54.5568 14.358 54.3267 14.8466C54.0994 15.3324 53.9858 15.9276 53.9858 16.6321C53.9858 17.3395 54.1009 17.9375 54.331 18.4261C54.5611 18.9148 54.8764 19.2855 55.277 19.5384C55.6776 19.7912 56.1335 19.9176 56.6449 19.9176C57.1193 19.9176 57.5327 19.821 57.8849 19.6278C58.2401 19.4347 58.5142 19.1619 58.7074 18.8097C58.9034 18.4545 59.0014 18.0369 59.0014 17.5568L59.3423 17.6207H56.8452V16.5341H60.2756V17.527C60.2756 18.2599 60.1193 18.8963 59.8068 19.4361C59.4972 19.973 59.0682 20.3878 58.5199 20.6804C57.9744 20.973 57.3494 21.1193 56.6449 21.1193C55.8551 21.1193 55.1619 20.9375 54.5653 20.5739C53.9716 20.2102 53.5085 19.6946 53.1761 19.027C52.8438 18.3565 52.6776 17.5611 52.6776 16.6406C52.6776 15.9446 52.7741 15.3196 52.9673 14.7656C53.1605 14.2116 53.4318 13.7415 53.7812 13.3551C54.1335 12.9659 54.5469 12.669 55.0213 12.4645C55.4986 12.2571 56.0199 12.1534 56.5852 12.1534C57.0568 12.1534 57.4957 12.223 57.902 12.3622C58.3111 12.5014 58.6747 12.6989 58.9929 12.9545C59.3139 13.2102 59.5795 13.5142 59.7898 13.8665C60 14.2159 60.142 14.6037 60.2159 15.0298H58.8651ZM64.6658 21.1321C64.021 21.1321 63.4656 20.9943 62.9996 20.7188C62.5366 20.4403 62.1786 20.0497 61.9258 19.5469C61.6758 19.0412 61.5508 18.4489 61.5508 17.7699C61.5508 17.0994 61.6758 16.5085 61.9258 15.9972C62.1786 15.4858 62.5309 15.0866 62.9826 14.7997C63.4371 14.5128 63.9684 14.3693 64.5763 14.3693C64.9457 14.3693 65.3036 14.4304 65.6502 14.5526C65.9968 14.6747 66.3079 14.8665 66.5835 15.1278C66.859 15.3892 67.0763 15.7287 67.2354 16.1463C67.3945 16.5611 67.4741 17.0653 67.4741 17.6591V18.1108H62.271V17.1562H66.2255C66.2255 16.821 66.1573 16.5241 66.021 16.2656C65.8846 16.0043 65.6928 15.7983 65.4457 15.6477C65.2013 15.4972 64.9144 15.4219 64.5849 15.4219C64.2269 15.4219 63.9144 15.5099 63.6474 15.6861C63.3832 15.8594 63.1786 16.0866 63.0337 16.3679C62.8917 16.6463 62.8207 16.9489 62.8207 17.2756V18.0213C62.8207 18.4588 62.8974 18.831 63.0508 19.1378C63.207 19.4446 63.4244 19.679 63.7028 19.8409C63.9812 20 64.3065 20.0795 64.6786 20.0795C64.9201 20.0795 65.1403 20.0455 65.3391 19.9773C65.538 19.9062 65.7099 19.8011 65.8548 19.6619C65.9996 19.5227 66.1104 19.3509 66.1871 19.1463L67.3931 19.3636C67.2965 19.7187 67.1232 20.0298 66.8732 20.2969C66.6261 20.5611 66.315 20.767 65.94 20.9148C65.5678 21.0597 65.1431 21.1321 64.6658 21.1321ZM71.9432 14.4545V15.4773H68.3679V14.4545H71.9432ZM69.3267 12.8864H70.6009V19.0781C70.6009 19.3253 70.6378 19.5114 70.7116 19.6364C70.7855 19.7585 70.8807 19.8423 70.9972 19.8878C71.1165 19.9304 71.2457 19.9517 71.3849 19.9517C71.4872 19.9517 71.5767 19.9446 71.6534 19.9304C71.7301 19.9162 71.7898 19.9048 71.8324 19.8963L72.0625 20.9489C71.9886 20.9773 71.8835 21.0057 71.7472 21.0341C71.6108 21.0653 71.4403 21.0824 71.2358 21.0852C70.9006 21.0909 70.5881 21.0312 70.2983 20.9062C70.0085 20.7812 69.7741 20.5881 69.5952 20.3267C69.4162 20.0653 69.3267 19.7372 69.3267 19.3423V12.8864ZM76.5284 21V14.4545H77.8026V21H76.5284ZM77.1719 13.4446C76.9503 13.4446 76.7599 13.3707 76.6009 13.223C76.4446 13.0724 76.3665 12.8935 76.3665 12.6861C76.3665 12.4759 76.4446 12.2969 76.6009 12.1491C76.7599 11.9986 76.9503 11.9233 77.1719 11.9233C77.3935 11.9233 77.5824 11.9986 77.7386 12.1491C77.8977 12.2969 77.9773 12.4759 77.9773 12.6861C77.9773 12.8935 77.8977 13.0724 77.7386 13.223C77.5824 13.3707 77.3935 13.4446 77.1719 13.4446ZM82.5721 14.4545V15.4773H78.9968V14.4545H82.5721ZM79.9556 12.8864H81.2298V19.0781C81.2298 19.3253 81.2667 19.5114 81.3406 19.6364C81.4144 19.7585 81.5096 19.8423 81.6261 19.8878C81.7454 19.9304 81.8746 19.9517 82.0138 19.9517C82.1161 19.9517 82.2056 19.9446 82.2823 19.9304C82.359 19.9162 82.4187 19.9048 82.4613 19.8963L82.6914 20.9489C82.6175 20.9773 82.5124 21.0057 82.3761 21.0341C82.2397 21.0653 82.0692 21.0824 81.8647 21.0852C81.5295 21.0909 81.217 21.0312 80.9272 20.9062C80.6374 20.7812 80.4031 20.5881 80.2241 20.3267C80.0451 20.0653 79.9556 19.7372 79.9556 19.3423V12.8864ZM89.9144 21.1321C89.3008 21.1321 88.7653 20.9915 88.3079 20.7102C87.8505 20.429 87.4954 20.0355 87.2425 19.5298C86.9897 19.0241 86.8633 18.4332 86.8633 17.7571C86.8633 17.0781 86.9897 16.4844 87.2425 15.9759C87.4954 15.4673 87.8505 15.0724 88.3079 14.7912C88.7653 14.5099 89.3008 14.3693 89.9144 14.3693C90.5281 14.3693 91.0636 14.5099 91.521 14.7912C91.9783 15.0724 92.3335 15.4673 92.5863 15.9759C92.8391 16.4844 92.9656 17.0781 92.9656 17.7571C92.9656 18.4332 92.8391 19.0241 92.5863 19.5298C92.3335 20.0355 91.9783 20.429 91.521 20.7102C91.0636 20.9915 90.5281 21.1321 89.9144 21.1321ZM89.9187 20.0625C90.3164 20.0625 90.646 19.9574 90.9073 19.7472C91.1687 19.5369 91.3619 19.2571 91.4869 18.9077C91.6147 18.5582 91.6786 18.1733 91.6786 17.7528C91.6786 17.3352 91.6147 16.9517 91.4869 16.6023C91.3619 16.25 91.1687 15.9673 90.9073 15.7543C90.646 15.5412 90.3164 15.4347 89.9187 15.4347C89.5181 15.4347 89.1857 15.5412 88.9215 15.7543C88.6602 15.9673 88.4656 16.25 88.3377 16.6023C88.2127 16.9517 88.1502 17.3352 88.1502 17.7528C88.1502 18.1733 88.2127 18.5582 88.3377 18.9077C88.4656 19.2571 88.6602 19.5369 88.9215 19.7472C89.1857 19.9574 89.5181 20.0625 89.9187 20.0625ZM95.6619 17.1136V21H94.3878V14.4545H95.6108V15.5199H95.6918C95.8423 15.1733 96.0781 14.8949 96.3991 14.6847C96.723 14.4744 97.1307 14.3693 97.6222 14.3693C98.0682 14.3693 98.4588 14.4631 98.794 14.6506C99.1293 14.8352 99.3892 15.1108 99.5739 15.4773C99.7585 15.8437 99.8509 16.2969 99.8509 16.8366V21H98.5767V16.9901C98.5767 16.5156 98.4531 16.1449 98.206 15.8778C97.9588 15.608 97.6193 15.473 97.1875 15.473C96.892 15.473 96.6293 15.5369 96.3991 15.6648C96.1719 15.7926 95.9915 15.9801 95.858 16.2273C95.7273 16.4716 95.6619 16.767 95.6619 17.1136Z"
    fill="#A1A1AA" />
  <path
    d="M63.4418 32.0497C63.3045 31.6188 63.1198 31.233 62.8878 30.892C62.6605 30.5464 62.3883 30.2528 62.071 30.0114C61.7538 29.7652 61.3916 29.5781 60.9844 29.4503C60.5819 29.3224 60.1392 29.2585 59.6562 29.2585C58.8371 29.2585 58.0985 29.4692 57.4403 29.8906C56.7822 30.312 56.2614 30.9299 55.8778 31.7443C55.4991 32.554 55.3097 33.5459 55.3097 34.7202C55.3097 35.8991 55.5014 36.8958 55.8849 37.7102C56.2685 38.5246 56.794 39.1425 57.4616 39.5639C58.1293 39.9853 58.8892 40.196 59.7415 40.196C60.5322 40.196 61.2211 40.035 61.8082 39.7131C62.4001 39.3911 62.857 38.9366 63.179 38.3494C63.5057 37.7576 63.669 37.0616 63.669 36.2614L64.2372 36.3679H60.0753V34.5568H65.7926V36.2116C65.7926 37.4332 65.5322 38.4938 65.0114 39.3935C64.4953 40.2884 63.7803 40.9796 62.8665 41.4673C61.9574 41.955 60.9157 42.1989 59.7415 42.1989C58.4252 42.1989 57.2699 41.8958 56.2756 41.2898C55.286 40.6837 54.5142 39.8243 53.9602 38.7116C53.4063 37.5942 53.1293 36.2685 53.1293 34.7344C53.1293 33.5743 53.2902 32.5327 53.6122 31.6094C53.9342 30.6861 54.3864 29.9025 54.9688 29.2585C55.5559 28.6098 56.2448 28.1151 57.0355 27.7741C57.831 27.4285 58.6998 27.2557 59.642 27.2557C60.428 27.2557 61.1596 27.3717 61.8366 27.6037C62.5185 27.8357 63.1245 28.1648 63.6548 28.5909C64.1899 29.017 64.6326 29.5237 64.983 30.1108C65.3333 30.6932 65.5701 31.3395 65.6932 32.0497H63.4418ZM73.0032 42.2202C71.9805 42.2202 71.0879 41.9858 70.3256 41.517C69.5633 41.0483 68.9715 40.3925 68.5501 39.5497C68.1287 38.7069 67.918 37.7221 67.918 36.5952C67.918 35.4635 68.1287 34.474 68.5501 33.6264C68.9715 32.7789 69.5633 32.1207 70.3256 31.652C71.0879 31.1832 71.9805 30.9489 73.0032 30.9489C74.0259 30.9489 74.9184 31.1832 75.6808 31.652C76.4431 32.1207 77.0349 32.7789 77.4563 33.6264C77.8777 34.474 78.0884 35.4635 78.0884 36.5952C78.0884 37.7221 77.8777 38.7069 77.4563 39.5497C77.0349 40.3925 76.4431 41.0483 75.6808 41.517C74.9184 41.9858 74.0259 42.2202 73.0032 42.2202ZM73.0103 40.4375C73.6732 40.4375 74.2224 40.2623 74.658 39.9119C75.0936 39.5616 75.4156 39.0952 75.6239 38.5128C75.837 37.9304 75.9435 37.2888 75.9435 36.5881C75.9435 35.892 75.837 35.2528 75.6239 34.6705C75.4156 34.0833 75.0936 33.6122 74.658 33.2571C74.2224 32.902 73.6732 32.7244 73.0103 32.7244C72.3427 32.7244 71.7887 32.902 71.3484 33.2571C70.9128 33.6122 70.5884 34.0833 70.3754 34.6705C70.167 35.2528 70.0629 35.892 70.0629 36.5881C70.0629 37.2888 70.167 37.9304 70.3754 38.5128C70.5884 39.0952 70.9128 39.5616 71.3484 39.9119C71.7887 40.2623 72.3427 40.4375 73.0103 40.4375ZM85.054 42.2202C84.0313 42.2202 83.1387 41.9858 82.3764 41.517C81.6141 41.0483 81.0223 40.3925 80.6009 39.5497C80.1795 38.7069 79.9688 37.7221 79.9688 36.5952C79.9688 35.4635 80.1795 34.474 80.6009 33.6264C81.0223 32.7789 81.6141 32.1207 82.3764 31.652C83.1387 31.1832 84.0313 30.9489 85.054 30.9489C86.0767 30.9489 86.9692 31.1832 87.7315 31.652C88.4938 32.1207 89.0857 32.7789 89.5071 33.6264C89.9285 34.474 90.1392 35.4635 90.1392 36.5952C90.1392 37.7221 89.9285 38.7069 89.5071 39.5497C89.0857 40.3925 88.4938 41.0483 87.7315 41.517C86.9692 41.9858 86.0767 42.2202 85.054 42.2202ZM85.0611 40.4375C85.724 40.4375 86.2732 40.2623 86.7088 39.9119C87.1444 39.5616 87.4664 39.0952 87.6747 38.5128C87.8878 37.9304 87.9943 37.2888 87.9943 36.5881C87.9943 35.892 87.8878 35.2528 87.6747 34.6705C87.4664 34.0833 87.1444 33.6122 86.7088 33.2571C86.2732 32.902 85.724 32.7244 85.0611 32.7244C84.3935 32.7244 83.8395 32.902 83.3991 33.2571C82.9635 33.6122 82.6392 34.0833 82.4261 34.6705C82.2178 35.2528 82.1136 35.892 82.1136 36.5881C82.1136 37.2888 82.2178 37.9304 82.4261 38.5128C82.6392 39.0952 82.9635 39.5616 83.3991 39.9119C83.8395 40.2623 84.3935 40.4375 85.0611 40.4375ZM97.0835 46.3182C96.217 46.3182 95.4712 46.2045 94.8462 45.9773C94.226 45.75 93.7193 45.4493 93.3263 45.0753C92.9334 44.7012 92.6398 44.2917 92.4457 43.8466L94.271 43.0938C94.3988 43.3021 94.5692 43.5223 94.7823 43.7543C95.0001 43.991 95.2937 44.1922 95.663 44.358C96.0371 44.5237 96.5176 44.6065 97.1048 44.6065C97.9097 44.6065 98.5749 44.41 99.1005 44.017C99.6261 43.6288 99.8888 43.0085 99.8888 42.1562V40.0114H99.7539C99.6261 40.2434 99.4414 40.5014 99.1999 40.7855C98.9632 41.0696 98.6365 41.3158 98.2198 41.5241C97.8031 41.7325 97.261 41.8366 96.5934 41.8366C95.7317 41.8366 94.9551 41.6354 94.2638 41.233C93.5773 40.8258 93.0328 40.2268 92.6303 39.4361C92.2326 38.6406 92.0337 37.6629 92.0337 36.5028C92.0337 35.3428 92.2302 34.3485 92.6232 33.5199C93.021 32.6913 93.5655 32.0568 94.2567 31.6165C94.948 31.1714 95.7317 30.9489 96.6076 30.9489C97.2847 30.9489 97.8316 31.0625 98.2482 31.2898C98.6649 31.5123 98.9892 31.7727 99.2212 32.071C99.458 32.3693 99.6403 32.6321 99.7681 32.8594H99.9244V31.0909H102.005V42.2415C102.005 43.179 101.788 43.9484 101.352 44.5497C100.916 45.151 100.327 45.5961 99.5835 45.8849C98.8448 46.1738 98.0115 46.3182 97.0835 46.3182ZM97.0621 40.0753C97.6729 40.0753 98.189 39.9332 98.6104 39.6491C99.0366 39.3603 99.3585 38.9484 99.5763 38.4134C99.7989 37.8736 99.9102 37.2273 99.9102 36.4744C99.9102 35.7405 99.8013 35.0942 99.5835 34.5355C99.3656 33.9768 99.046 33.5412 98.6246 33.2287C98.2032 32.9115 97.6824 32.7528 97.0621 32.7528C96.4229 32.7528 95.8903 32.9186 95.4641 33.25C95.038 33.5767 94.716 34.0218 94.4982 34.5852C94.2852 35.1487 94.1786 35.7784 94.1786 36.4744C94.1786 37.1894 94.2875 37.8168 94.5053 38.3565C94.7231 38.8963 95.0451 39.3177 95.4712 39.6207C95.9021 39.9238 96.4324 40.0753 97.0621 40.0753ZM106.977 27.4545V42H104.853V27.4545H106.977ZM114.536 42.2202C113.461 42.2202 112.535 41.9905 111.759 41.5312C110.987 41.0672 110.39 40.4162 109.969 39.5781C109.552 38.7353 109.344 37.7481 109.344 36.6165C109.344 35.4991 109.552 34.5142 109.969 33.6619C110.39 32.8097 110.977 32.1444 111.73 31.6662C112.488 31.188 113.373 30.9489 114.386 30.9489C115.002 30.9489 115.598 31.0507 116.176 31.2543C116.754 31.4579 117.272 31.7775 117.732 32.2131C118.191 32.6487 118.553 33.2145 118.818 33.9105C119.083 34.6018 119.216 35.4422 119.216 36.4318V37.1847H110.544V35.5938H117.135C117.135 35.035 117.021 34.5402 116.794 34.1094C116.567 33.6738 116.247 33.3305 115.835 33.0795C115.428 32.8286 114.95 32.7031 114.401 32.7031C113.804 32.7031 113.283 32.8499 112.838 33.1435C112.398 33.4323 112.057 33.8111 111.815 34.2798C111.579 34.7438 111.46 35.2481 111.46 35.7926V37.0355C111.46 37.7647 111.588 38.3849 111.844 38.8963C112.104 39.4077 112.466 39.7983 112.93 40.0682C113.394 40.3333 113.937 40.4659 114.557 40.4659C114.959 40.4659 115.326 40.4091 115.658 40.2955C115.989 40.1771 116.276 40.0019 116.517 39.7699C116.759 39.5379 116.943 39.2514 117.071 38.9105L119.081 39.2727C118.92 39.8646 118.631 40.383 118.214 40.8281C117.803 41.2685 117.284 41.6117 116.659 41.858C116.039 42.0994 115.331 42.2202 114.536 42.2202ZM127.036 42V27.4545H132.22C133.352 27.4545 134.289 27.6605 135.033 28.0724C135.776 28.4844 136.332 29.0478 136.702 29.7628C137.071 30.473 137.256 31.2732 137.256 32.1634C137.256 33.0582 137.069 33.8632 136.695 34.5781C136.325 35.2884 135.767 35.8518 135.018 36.2685C134.275 36.6804 133.34 36.8864 132.213 36.8864H128.648V35.0256H132.014C132.729 35.0256 133.309 34.9025 133.754 34.6562C134.199 34.4053 134.526 34.0644 134.734 33.6335C134.943 33.2027 135.047 32.7126 135.047 32.1634C135.047 31.6141 134.943 31.1264 134.734 30.7003C134.526 30.2741 134.197 29.9403 133.747 29.6989C133.302 29.4574 132.715 29.3366 131.986 29.3366H129.23V42H127.036ZM141.782 27.4545V42H139.658V27.4545H141.782ZM147.813 42.2415C147.122 42.2415 146.497 42.1136 145.938 41.858C145.379 41.5975 144.937 41.2211 144.61 40.7287C144.288 40.2363 144.127 39.6326 144.127 38.9176C144.127 38.3021 144.246 37.7955 144.482 37.3977C144.719 37 145.039 36.6851 145.441 36.4531C145.844 36.2211 146.293 36.0459 146.79 35.9276C147.288 35.8092 147.794 35.7192 148.31 35.6577C148.964 35.5819 149.494 35.5204 149.901 35.473C150.308 35.4209 150.604 35.3381 150.789 35.2244C150.974 35.1108 151.066 34.9261 151.066 34.6705V34.6207C151.066 34.0005 150.891 33.5199 150.54 33.179C150.195 32.8381 149.679 32.6676 148.992 32.6676C148.277 32.6676 147.714 32.8262 147.302 33.1435C146.895 33.456 146.613 33.804 146.457 34.1875L144.461 33.733C144.698 33.0701 145.043 32.535 145.498 32.1278C145.957 31.7159 146.485 31.4176 147.082 31.233C147.678 31.0436 148.306 30.9489 148.964 30.9489C149.399 30.9489 149.861 31.0009 150.349 31.1051C150.841 31.2045 151.3 31.3892 151.727 31.6591C152.157 31.929 152.51 32.3149 152.785 32.8168C153.059 33.3139 153.197 33.9602 153.197 34.7557V42H151.123V40.5085H151.038C150.9 40.7831 150.694 41.053 150.42 41.3182C150.145 41.5833 149.792 41.8035 149.362 41.9787C148.931 42.1539 148.415 42.2415 147.813 42.2415ZM148.275 40.5369C148.862 40.5369 149.364 40.4209 149.781 40.1889C150.202 39.9569 150.522 39.6539 150.739 39.2798C150.962 38.901 151.073 38.4962 151.073 38.0653V36.6591C150.997 36.7348 150.851 36.8059 150.633 36.8722C150.42 36.9337 150.176 36.9882 149.901 37.0355C149.627 37.0781 149.359 37.1184 149.099 37.1562C148.838 37.1894 148.621 37.2178 148.445 37.2415C148.033 37.2936 147.657 37.3812 147.316 37.5043C146.98 37.6274 146.71 37.8049 146.506 38.0369C146.308 38.2642 146.208 38.5672 146.208 38.946C146.208 39.4716 146.402 39.8693 146.79 40.1392C147.179 40.4044 147.674 40.5369 148.275 40.5369ZM156.977 46.0909C156.66 46.0909 156.371 46.0649 156.11 46.0128C155.85 45.9654 155.656 45.9134 155.528 45.8565L156.039 44.1165C156.428 44.2206 156.773 44.2656 157.076 44.2514C157.379 44.2372 157.647 44.1236 157.879 43.9105C158.116 43.6974 158.324 43.3494 158.504 42.8665L158.767 42.142L154.775 31.0909H157.048L159.811 39.5568H159.924L162.687 31.0909H164.967L160.471 43.456C160.263 44.0241 159.998 44.5047 159.676 44.8977C159.354 45.2955 158.97 45.5938 158.525 45.7926C158.08 45.9915 157.564 46.0909 156.977 46.0909Z"
    fill="#F4F4F5" />
  <defs>
    <clipPath id="clip0_4105_648">
      <rect width="32" height="32" fill="white" transform="translate(12 12)" />
    </clipPath>
  </defs>
</svg>